# xmcd
#
# Track frame offsets:
#	150
#	19285
#	33040
#	58212
#	78012
#	99417
#	114417
#	132280
#	152067
#	168815
#	183325
#	200295
#	221247
#	247130
#
# Disc length: 4508 seconds
#
# Revision: 1
# Processed by: cddbd v1.5.2PL0 Copyright (c) Steve Scherf et al.
# Submitted via: audiograbber 1.83.01
#
DISCID=b6119a0e
DTITLE=Various Artist - A Tribute To Howlin' Wolf
DYEAR=1998
DGENRE=Blues
TTITLE0=Taj Mahal - Saddle My Pony
TTITLE1=Christine Ohlman and Eddie Shaw - Howlin' For My Darling
TTITLE2=Kenny Neal - The Red Rooster
TTITLE3=Colin Linden - Just Like I Treat You
TTITLE4=Eddie Shaw - Built For Comfort
TTITLE5=Debbie Davies - Ooh Baby (Hold Me)
TTITLE6=Cub Koda - Riding In The Moonlight
TTITLE7=Ronnie Hawkins - Back Door Man
TTITLE8=Sam Lay - Baby How Long
TTITLE9=Hubert Sumlin - Killing Floor
TTITLE10=Colin James - Howlin' Wolf Boogie
TTITLE11=Henry Grey - Smokestack Lightnin'
TTITLE12=Lucinda Williams - Come To Me Baby
TTITLE13=No One - Data Track
EXTD=YEAR: 1998 ID3G: 0
EXTT0=
EXTT1=
EXTT2=
EXTT3=
EXTT4=
EXTT5=
EXTT6=
EXTT7=
EXTT8=
EXTT9=
EXTT10=
EXTT11=
EXTT12=
EXTT13=
PLAYORDER=
